<svg xmlns="http://www.w3.org/2000/svg" viewBox="0 0 81 81"><circle fill="none" stroke="#BBBDBF" stroke-miterlimit="10" cx="40.5" cy="40.5" r="40"/><path d="M16.8 27.5c4 0 4.9-2 5.8-4.2h3.5v33.3h-5.2V31.2h-4v-3.7zm17.7 4c0-5.6 2.6-8.7 8-8.7 5.1 0 7.8 3 7.8 8.4v.9h-4.9v-1.2c0-2.4-1-3.3-2.7-3.3-1.9 0-2.9.9-2.9 4.1v6.1c.9-1.9 2.5-3 4.9-3 3.9 0 5.8 2.7 5.8 7.6v6.1c0 5.3-2.8 8.4-7.9 8.4s-7.9-3-7.9-8.4v-17zm5.2 11.4v6c0 2.4 1 3.2 2.7 3.2s2.7-.9 2.7-3.2v-6c0-2.4-1-3.3-2.7-3.3s-2.7.9-2.7 3.3zm25.7-4.8h6.4v3.7h-6.4v6.5h-3.7v-6.5h-6.4v-3.7h6.4v-6.4h3.7v6.4z" fill="#BBBDBF"/></svg>